<svg width="619" height="141" viewBox="0 0 619 141" fill="none" xmlns="http://www.w3.org/2000/svg">
<g clip-path="url(#clip0_4_16)">
<path d="M122.208 0L87.9046 40.5921L67 48.0707L46.0954 40.5921L11.7917 0L0 96.137L54.1367 141H79.8633L134 96.137L122.208 0ZM23.5565 65.1501L55.3073 70.1747V92.4223L44.9473 76.8997L23.552 65.1501H23.5565ZM67 121.839L50.3592 113.1L67 104.36L83.6408 113.1L67 121.839ZM89.0482 76.8997L78.6882 92.4223V70.1747L110.439 65.1501L89.0437 76.8997H89.0482Z" fill="#FE5000"/>
</g>
<path d="M560.306 107H537.138L562.738 75.6401V74.6161L537.138 42.8721H560.562L577.586 64.5041H578.61L595.122 42.8721H618.29L592.69 74.2321V75.3841L618.29 107H594.866L577.842 85.4961H576.818L560.306 107Z" fill="black"/>
<path d="M503.441 108.28C481.553 108.28 466.833 95.224 466.833 75C466.833 54.52 481.553 41.592 503.441 41.592C525.329 41.592 540.049 54.52 540.049 75C540.049 95.224 525.329 108.28 503.441 108.28ZM503.441 91.256C516.369 91.256 520.977 86.264 520.977 75C520.977 63.736 516.369 58.488 503.441 58.488C490.385 58.488 485.905 63.736 485.905 75C485.905 86.264 490.385 91.256 503.441 91.256Z" fill="black"/>
<path d="M448.205 107H429.005V58.744H419.917V42.872H429.389C431.437 29.944 442.701 21.24 462.413 21.24H468.045V35.192H459.341C450.893 35.192 446.925 36.6 447.437 42.872H468.045V58.744H448.205V107Z" fill="black"/>
<path d="M364.83 128.76H345.63V42.872H363.422V60.408H364.702C367.006 48.12 375.198 41.592 390.302 41.592C410.014 41.592 421.022 54.648 421.022 75C421.022 95.352 410.27 108.28 390.942 108.28C376.094 108.28 367.902 100.984 365.726 89.72H364.83V128.76ZM364.83 75.896C364.83 86.904 371.486 90.744 383.518 90.744C395.806 90.744 401.566 86.648 401.566 75C401.566 63.224 395.806 59.256 383.646 59.256C371.23 59.256 364.83 63.48 364.83 74.872V75.896Z" fill="black"/>
<path d="M286.575 128.76H267.375V42.872H285.167V60.408H286.447C288.751 48.12 296.943 41.592 312.047 41.592C331.759 41.592 342.767 54.648 342.767 75C342.767 95.352 332.015 108.28 312.687 108.28C297.839 108.28 289.647 100.984 287.471 89.72H286.575V128.76ZM286.575 75.896C286.575 86.904 293.231 90.744 305.263 90.744C317.551 90.744 323.311 86.648 323.311 75C323.311 63.224 317.551 59.256 305.391 59.256C292.975 59.256 286.575 63.48 286.575 74.872V75.896Z" fill="black"/>
<path d="M186.864 107H165.36L202.864 21.24H230.256L268.016 107H246L237.936 88.056H195.056L186.864 107ZM210.544 52.088L202.48 70.776H230.512L222.448 52.088L217.2 38.776H215.792L210.544 52.088Z" fill="black"/>
<defs>
<clipPath id="clip0_4_16">
<rect width="134" height="141" fill="white"/>
</clipPath>
</defs>
</svg>
